<svg xmlns="http://www.w3.org/2000/svg" width="900" height="420">
<rect x="0" y="0" width="900" height="420" fill="white"/>
<text x="220" y="26" font-family="Arial, sans-serif" font-size="18">Parameter coverage — 2026-01-30</text>
<text x="220" y="48" font-family="Arial, sans-serif" font-size="12" fill="gray">Counts of measurements returned by OpenAQ /latest across the NY daily sample (top 9). Total shown: 277.</text>
<line x1="220" y1="70" x2="220" y2="370" stroke="black"/>
<line x1="220" y1="370" x2="870" y2="370" stroke="black"/>
<line x1="220.00" y1="70" x2="220.00" y2="370" stroke="lightgray"/>
<text x="220.00" y="388" font-family="Arial, sans-serif" font-size="11" text-anchor="middle">0</text>
<line x1="382.50" y1="70" x2="382.50" y2="370" stroke="lightgray"/>
<text x="382.50" y="388" font-family="Arial, sans-serif" font-size="11" text-anchor="middle">18</text>
<line x1="545.00" y1="70" x2="545.00" y2="370" stroke="lightgray"/>
<text x="545.00" y="388" font-family="Arial, sans-serif" font-size="11" text-anchor="middle">36</text>
<line x1="707.50" y1="70" x2="707.50" y2="370" stroke="lightgray"/>
<text x="707.50" y="388" font-family="Arial, sans-serif" font-size="11" text-anchor="middle">54</text>
<line x1="870.00" y1="70" x2="870.00" y2="370" stroke="lightgray"/>
<text x="870.00" y="388" font-family="Arial, sans-serif" font-size="11" text-anchor="middle">72</text>
<text x="545.00" y="408" font-family="Arial, sans-serif" font-size="12" text-anchor="middle">measurement count</text>
<text x="210" y="87" font-family="Arial, sans-serif" font-size="12" text-anchor="end">pm25</text>
<rect x="220" y="70" width="650.00" height="22" fill="gray" stroke="black" stroke-width="0.5"/>
<text x="878.00" y="87" font-family="Arial, sans-serif" font-size="12">73 (26%)</text>
<text x="210" y="119" font-family="Arial, sans-serif" font-size="12" text-anchor="end">pm1</text>
<rect x="220" y="102" width="365.07" height="22" fill="gray" stroke="black" stroke-width="0.5"/>
<text x="593.07" y="119" font-family="Arial, sans-serif" font-size="12">41 (15%)</text>
<text x="210" y="151" font-family="Arial, sans-serif" font-size="12" text-anchor="end">temperature</text>
<rect x="220" y="134" width="329.45" height="22" fill="gray" stroke="black" stroke-width="0.5"/>
<text x="557.45" y="151" font-family="Arial, sans-serif" font-size="12">37 (13%)</text>
<text x="210" y="183" font-family="Arial, sans-serif" font-size="12" text-anchor="end">relativehumidity</text>
<rect x="220" y="166" width="311.64" height="22" fill="gray" stroke="black" stroke-width="0.5"/>
<text x="539.64" y="183" font-family="Arial, sans-serif" font-size="12">35 (13%)</text>
<text x="210" y="215" font-family="Arial, sans-serif" font-size="12" text-anchor="end">um003</text>
<rect x="220" y="198" width="302.74" height="22" fill="gray" stroke="black" stroke-width="0.5"/>
<text x="530.74" y="215" font-family="Arial, sans-serif" font-size="12">34 (12%)</text>
<text x="210" y="247" font-family="Arial, sans-serif" font-size="12" text-anchor="end">o3</text>
<rect x="220" y="230" width="276.03" height="22" fill="gray" stroke="black" stroke-width="0.5"/>
<text x="504.03" y="247" font-family="Arial, sans-serif" font-size="12">31 (11%)</text>
<text x="210" y="279" font-family="Arial, sans-serif" font-size="12" text-anchor="end">pm10</text>
<rect x="220" y="262" width="195.89" height="22" fill="gray" stroke="black" stroke-width="0.5"/>
<text x="423.89" y="279" font-family="Arial, sans-serif" font-size="12">22 (8%)</text>
<text x="210" y="311" font-family="Arial, sans-serif" font-size="12" text-anchor="end">no2</text>
<rect x="220" y="294" width="17.81" height="22" fill="gray" stroke="black" stroke-width="0.5"/>
<text x="245.81" y="311" font-family="Arial, sans-serif" font-size="12">2 (1%)</text>
<text x="210" y="343" font-family="Arial, sans-serif" font-size="12" text-anchor="end">so2</text>
<rect x="220" y="326" width="17.81" height="22" fill="gray" stroke="black" stroke-width="0.5"/>
<text x="245.81" y="343" font-family="Arial, sans-serif" font-size="12">2 (1%)</text>
</svg>
