<svg xmlns="http://www.w3.org/2000/svg" width="900" height="520">
<rect x="0" y="0" width="900" height="520" fill="white"/>
<text x="20" y="18" font-family="Arial, sans-serif" font-size="16">New York State — PM2.5 (latest)</text>
<text x="20" y="36" font-family="Arial, sans-serif" font-size="12" fill="gray">2026-02-04 • All NY locations (with coordinates) • fresh: 37 • stale: 36 • missing: 20</text>
<path d="M671.45,461.41 L671.76,461.32 L672.22,461.64 L672.35,461.97 L672.25,462.95 L671.86,462.98 L671.49,462.62 L671.42,461.90 L671.45,461.41 Z" fill="none" stroke="black" stroke-width="1"/>
<path d="M642.36,478.33 L642.45,478.27 L642.52,478.30 L642.67,478.45 L642.08,479.44 L641.97,479.57 L641.76,479.50 L641.65,479.36 L641.70,479.29 L642.36,478.33 Z" fill="none" stroke="black" stroke-width="1"/>
<path d="M631.09,495.85 L630.63,495.92 L629.30,496.74 L627.44,497.50 L626.99,497.39 L625.05,498.34 L623.91,498.58 L622.89,499.31 L621.43,499.45 L619.97,500.00 L619.59,499.94 L619.11,499.34 L618.94,498.75 L619.31,498.11 L620.38,497.37 L620.51,496.26 L619.84,494.98 L621.89,493.74 L623.20,493.75 L623.86,493.12 L624.60,490.10 L625.39,489.28 L625.54,488.77 L625.47,487.25 L624.94,487.17 L624.85,486.89 L624.98,485.63 L626.20,484.49 L627.20,484.13 L627.86,484.18 L628.29,484.48 L630.16,484.84 L633.73,484.48 L637.39,483.80 L638.55,483.86 L639.22,484.59 L639.45,486.43 L640.24,487.69 L641.02,488.58 L640.36,489.66 L639.38,490.65 L636.92,492.53 L634.68,494.60 L634.55,494.53 L633.57,495.05 L631.87,496.39 L631.55,496.00 L631.09,495.85 Z" fill="none" stroke="black" stroke-width="1"/>
<path d="M849.98,435.40 L850.40,435.00 L850.58,434.26 L855.20,435.70 L855.53,436.51 L854.90,440.30 L853.95,440.75 L853.79,440.66 L853.79,438.43 L853.14,437.30 L852.79,437.05 L851.24,436.59 L849.21,436.67 L848.92,436.46 L848.81,436.10 L849.05,435.78 L849.98,435.40 Z" fill="none" stroke="black" stroke-width="1"/>
<path d="M870.50,416.04 L872.32,415.67 L871.40,416.69 L870.20,417.14 L868.43,417.71 L866.65,418.34 L864.93,419.25 L864.09,419.63 L860.35,419.96 L860.56,419.36 L861.16,418.55 L861.81,417.71 L862.30,417.37 L863.61,417.44 L865.33,416.61 L866.53,416.72 L869.49,416.21 L870.50,416.04 Z" fill="none" stroke="black" stroke-width="1"/>
<path d="M672.13,458.56 L672.14,458.66 L672.14,458.72 L672.14,458.86 L672.23,459.11 L672.15,459.22 L671.72,459.30 L671.25,459.00 L671.26,458.78 L671.52,458.74 L671.57,458.43 L671.76,458.34 L672.01,458.42 L672.12,458.50 L672.13,458.56 Z" fill="none" stroke="black" stroke-width="1"/>
<path d="M711.67,111.62 L708.89,119.45 L708.00,122.91 L708.06,123.36 L710.90,125.02 L711.42,126.16 L711.47,133.32 L711.23,135.33 L712.37,137.90 L713.33,145.68 L714.32,148.22 L714.32,148.23 L716.69,150.62 L717.46,152.16 L716.34,154.09 L715.25,155.97 L711.69,161.33 L711.12,162.50 L709.72,165.42 L708.67,171.61 L708.95,172.06 L712.04,173.67 L714.72,168.95 L715.71,167.87 L722.27,167.39 L722.67,167.63 L728.86,176.71 L729.25,177.28 L728.71,179.40 L728.10,194.68 L728.09,194.76 L728.08,195.48 L728.05,196.41 L727.86,200.66 L727.39,211.06 L726.27,230.83 L725.74,240.07 L725.73,240.19 L725.72,240.42 L725.27,251.78 L724.54,251.70 L723.93,255.12 L725.51,261.06 L726.76,261.07 L722.18,273.10 L717.23,286.12 L710.91,302.93 L700.30,331.12 L701.53,335.01 L702.57,335.01 L700.65,358.95 L700.65,359.00 L700.08,365.91 L699.29,375.69 L698.86,381.02 L697.92,390.50 L697.50,395.54 L697.49,395.62 L697.48,395.72 L697.46,395.84 L697.46,395.89 L697.45,395.95 L697.30,397.94 L697.29,398.09 L697.29,398.14 L697.28,398.37 L697.27,398.55 L697.17,399.64 L697.11,400.19 L697.09,400.40 L696.44,406.47 L696.33,407.58 L695.65,415.11 L703.07,423.89 L700.16,425.16 L699.60,425.41 L688.75,430.24 L686.82,431.10 L686.00,431.46 L676.41,435.79 L680.06,440.19 L680.83,441.10 L681.61,442.05 L682.65,443.29 L684.29,445.13 L684.37,445.24 L684.08,448.06 L684.22,448.65 L683.79,449.84 L683.56,450.08 L683.30,449.97 L681.82,450.44 L681.25,451.90 L680.91,452.31 L679.66,452.90 L677.07,453.70 L675.98,454.45 L673.26,455.77 L670.59,458.65 L670.35,459.12 L670.21,459.39 L670.13,460.39 L669.78,461.51 L669.86,461.98 L670.22,462.23 L670.50,462.70 L670.50,462.99 L670.49,463.23 L670.60,463.60 L670.45,463.73 L670.31,463.82 L670.15,463.69 L669.84,463.26 L669.53,462.78 L669.70,462.27 L669.40,461.80 L669.23,461.82 L668.86,462.18 L668.61,462.63 L667.80,462.47 L667.16,462.76 L666.86,464.00 L666.90,464.43 L667.26,465.03 L668.07,465.76 L668.85,466.07 L670.08,467.63 L670.58,468.27 L671.16,468.23 L671.99,467.65 L672.01,467.64 L673.56,465.50 L673.52,464.88 L676.36,462.11 L676.53,461.69 L676.10,460.78 L676.22,460.66 L677.95,460.28 L682.09,461.67 L682.62,461.49 L684.24,460.94 L684.40,459.42 L685.84,457.89 L686.64,457.30 L687.38,457.17 L688.40,457.33 L690.11,456.81 L690.84,456.33 L693.58,455.47 L693.99,455.43 L695.96,456.18 L699.09,455.59 L699.56,455.74 L701.20,455.18 L701.51,454.68 L701.56,454.61 L702.09,452.64 L702.78,452.18 L702.84,452.21 L703.35,452.51 L703.54,452.61 L703.97,452.75 L705.14,453.10 L705.48,453.14 L705.92,453.18 L707.17,453.31 L707.99,453.39 L708.08,453.40 L708.82,453.94 L708.84,454.11 L708.93,454.82 L711.41,454.96 L711.75,454.44 L711.69,452.62 L711.97,451.37 L712.09,451.24 L712.84,451.23 L714.85,453.11 L715.77,453.74 L717.21,454.27 L717.99,454.42 L718.14,454.21 L719.54,453.96 L723.48,454.50 L723.48,454.50 L730.64,456.56 L739.37,454.04 L739.67,453.38 L739.84,451.18 L740.27,450.08 L743.57,449.47 L746.71,449.35 L750.83,450.50 L751.18,450.26 L756.02,450.04 L760.46,450.08 L764.95,450.47 L767.74,450.42 L774.50,449.69 L780.15,450.17 L781.68,449.11 L786.64,448.02 L789.37,447.57 L792.02,447.81 L795.24,447.49 L800.69,446.74 L802.85,445.48 L803.34,444.85 L804.55,444.38 L807.63,442.49 L812.44,440.94 L814.24,439.37 L815.93,437.34 L818.90,437.14 L821.17,436.26 L825.62,432.29 L828.10,431.83 L829.29,431.55 L832.69,429.93 L834.03,429.63 L834.66,430.02 L835.20,430.12 L837.67,429.36 L838.45,429.55 L838.50,429.87 L836.78,431.92 L835.52,432.84 L831.68,434.56 L831.72,432.46 L831.03,431.85 L830.34,431.77 L829.75,431.92 L828.83,432.45 L827.89,433.71 L827.90,435.13 L829.85,437.07 L831.97,437.88 L833.86,437.95 L834.26,438.34 L833.56,439.28 L834.59,441.01 L836.02,442.02 L838.12,441.73 L839.41,441.78 L840.70,442.17 L842.40,443.06 L843.63,443.03 L844.42,442.70 L844.83,442.40 L845.34,441.58 L846.64,440.84 L846.91,440.77 L847.62,440.98 L849.42,442.27 L849.66,443.16 L849.41,443.95 L851.70,446.51 L852.50,447.11 L853.25,447.39 L853.98,447.40 L855.33,446.86 L855.66,446.12 L855.74,445.80 L856.07,445.52 L857.67,445.48 L858.06,445.98 L858.15,445.97 L858.36,445.93 L858.75,445.80 L858.97,445.46 L858.75,444.81 L858.71,444.31 L859.20,444.09 L860.47,444.28 L862.73,443.48 L864.44,442.27 L867.94,441.41 L868.59,440.72 L868.67,440.13 L868.54,439.69 L868.75,438.92 L871.08,438.26 L873.13,437.93 L875.32,437.90 L875.73,438.27 L876.37,438.45 L878.55,438.52 L879.10,438.32 L879.86,438.67 L880.00,438.99 L878.08,440.93 L874.83,442.22 L871.35,442.86 L861.17,446.50 L851.91,449.45 L821.30,460.65 L813.23,463.19 L801.98,466.32 L783.30,471.22 L782.44,471.59 L781.99,471.51 L780.80,471.81 L770.46,474.85 L763.93,476.94 L754.22,480.51 L749.60,481.92 L739.78,484.13 L732.91,485.69 L729.57,486.30 L727.07,486.69 L726.81,486.69 L722.25,486.76 L721.89,486.57 L720.85,485.16 L717.35,485.73 L712.94,487.11 L709.48,487.92 L706.59,488.59 L694.41,490.70 L692.08,490.38 L689.13,490.27 L685.24,490.79 L679.31,490.71 L673.48,490.62 L673.53,490.41 L673.63,489.97 L671.28,489.95 L668.40,490.49 L667.81,490.60 L664.81,491.39 L659.97,493.12 L653.92,494.79 L653.93,493.72 L654.12,493.19 L653.80,492.69 L653.48,492.56 L652.83,492.29 L652.23,491.79 L651.22,491.87 L647.74,492.11 L646.58,492.09 L645.82,491.85 L645.49,491.67 L645.39,491.28 L646.01,490.71 L646.11,490.58 L646.63,489.96 L646.44,489.42 L645.61,488.88 L643.23,488.50 L642.49,487.59 L642.19,486.33 L642.63,485.03 L642.90,484.64 L643.31,484.03 L644.81,482.70 L644.57,480.60 L644.31,480.34 L644.19,480.22 L644.10,479.73 L644.44,479.04 L644.79,478.83 L644.97,478.16 L644.68,477.60 L644.13,477.34 L645.30,472.33 L645.80,471.59 L646.70,470.22 L647.56,468.92 L648.23,467.90 L652.43,461.52 L653.54,459.79 L654.04,459.01 L654.05,459.01 L654.69,457.56 L655.54,455.67 L655.73,455.24 L658.33,446.78 L657.39,446.77 L656.39,446.35 L642.34,440.21 L642.34,440.21 L636.74,437.79 L636.27,437.59 L623.59,432.27 L621.30,431.31 L607.02,424.88 L604.15,423.59 L597.03,420.12 L571.21,408.53 L571.77,408.09 L571.62,407.48 L564.94,401.19 L564.57,401.16 L559.87,400.77 L551.43,399.72 L549.78,398.82 L547.54,395.98 L544.57,395.15 L539.74,392.72 L533.62,385.98 L532.58,382.03 L532.25,380.80 L532.78,379.37 L532.21,366.57 L528.15,360.25 L525.58,356.90 L522.77,355.99 L522.09,356.12 L509.41,352.49 L507.66,346.77 L506.19,345.18 L500.83,341.00 L498.91,340.34 L491.03,340.35 L490.57,340.35 L486.12,340.35 L485.47,340.36 L485.40,340.37 L431.39,340.39 L431.08,340.39 L417.73,340.41 L415.79,340.40 L414.97,340.40 L413.41,340.40 L391.85,340.46 L391.18,340.45 L378.97,340.40 L378.49,340.39 L368.59,340.27 L368.53,340.27 L340.49,340.11 L338.40,340.10 L329.08,340.10 L328.96,340.11 L328.40,340.11 L327.31,340.11 L326.71,340.12 L324.20,340.15 L324.19,340.15 L319.64,340.20 L319.63,340.20 L306.90,340.35 L265.50,340.28 L254.11,340.34 L238.89,340.41 L230.96,340.44 L229.96,340.44 L208.32,340.35 L208.29,340.35 L198.12,340.24 L189.21,340.29 L178.17,340.35 L146.78,340.30 L116.53,340.54 L111.73,340.50 L97.20,340.37 L96.24,340.36 L44.33,340.44 L42.93,340.43 L36.46,340.39 L34.89,340.38 L34.89,340.39 L20.08,340.38 L20.00,326.35 L20.03,324.28 L20.04,323.01 L20.03,321.88 L20.02,321.20 L20.03,320.78 L20.00,314.47 L20.02,313.59 L20.02,311.63 L24.82,310.05 L32.70,306.76 L38.29,304.00 L43.48,301.69 L47.32,299.68 L51.26,297.35 L53.57,296.62 L56.23,294.79 L58.80,292.15 L61.36,290.74 L63.51,289.29 L64.62,288.36 L65.67,288.28 L66.45,288.43 L66.85,288.35 L67.76,287.74 L68.34,287.20 L72.08,285.99 L74.12,284.73 L76.48,283.81 L78.63,283.35 L81.89,282.31 L86.73,281.48 L87.83,280.34 L88.03,279.78 L88.81,277.65 L89.17,277.53 L89.64,277.18 L90.54,275.93 L90.79,275.15 L94.34,272.31 L94.94,272.32 L95.97,271.81 L96.13,269.31 L97.59,267.10 L100.85,265.78 L102.24,265.46 L103.87,265.38 L108.98,262.55 L111.81,261.99 L117.20,258.48 L118.85,257.03 L119.08,256.20 L118.52,255.30 L118.21,255.25 L117.74,253.94 L117.52,252.48 L118.09,251.60 L118.19,250.93 L117.53,249.76 L116.81,249.66 L115.68,248.18 L114.69,246.31 L112.43,246.13 L113.16,244.71 L113.17,242.22 L112.79,241.17 L111.73,239.73 L111.48,239.56 L110.26,238.77 L105.89,237.61 L101.65,235.65 L100.73,234.64 L99.82,226.98 L99.79,226.71 L96.55,226.09 L95.70,224.42 L96.73,220.61 L98.11,219.42 L98.30,218.83 L96.55,208.71 L95.24,206.21 L100.75,205.02 L105.97,204.22 L110.44,202.94 L118.20,201.06 L120.72,200.26 L120.96,200.36 L127.08,199.35 L130.41,198.55 L135.88,197.84 L142.68,196.10 L152.14,194.84 L158.51,194.28 L159.20,194.32 L160.22,194.70 L161.05,194.66 L171.41,194.10 L172.66,194.37 L184.42,194.70 L186.27,194.89 L195.89,194.21 L200.32,194.19 L209.12,195.15 L212.16,195.29 L212.25,195.29 L214.25,194.88 L215.47,195.00 L216.80,195.48 L220.09,196.18 L222.04,196.18 L225.25,196.95 L231.64,197.60 L233.73,197.99 L235.06,198.05 L237.77,197.85 L238.13,198.26 L240.99,199.02 L242.78,199.72 L244.16,201.35 L248.63,204.03 L249.35,204.40 L252.12,205.27 L254.96,206.80 L257.67,208.25 L260.52,209.05 L262.36,209.17 L265.97,207.50 L268.62,207.05 L272.95,205.87 L275.37,205.49 L277.93,204.73 L278.54,204.68 L279.56,204.60 L283.36,204.28 L286.24,204.24 L287.40,204.54 L291.73,204.63 L297.18,203.91 L301.64,204.19 L304.86,203.55 L306.28,203.75 L308.30,203.50 L313.14,204.25 L316.78,205.28 L320.50,205.26 L321.72,204.93 L324.99,205.41 L325.67,205.34 L328.91,203.82 L330.88,203.09 L332.77,202.87 L333.80,202.98 L336.24,202.39 L337.69,201.65 L342.80,201.20 L345.59,200.26 L347.98,198.88 L349.72,197.61 L350.65,197.58 L353.28,197.51 L354.75,196.63 L356.40,195.16 L359.33,191.47 L360.63,190.19 L362.11,189.57 L363.20,189.12 L368.02,186.45 L371.39,185.20 L372.46,184.32 L373.13,184.05 L374.11,184.26 L376.27,183.60 L377.85,181.75 L381.66,180.01 L383.82,178.72 L384.57,178.52 L389.12,178.24 L391.66,179.56 L393.25,179.71 L396.92,179.62 L400.98,178.36 L403.59,177.88 L404.37,177.48 L405.53,176.19 L406.42,174.60 L407.11,173.02 L407.58,170.32 L407.86,165.08 L407.43,161.84 L406.90,157.75 L406.05,154.06 L404.30,148.68 L402.03,146.39 L400.20,145.08 L399.02,144.75 L398.43,144.46 L398.30,143.71 L398.49,142.90 L399.19,142.40 L399.96,141.84 L400.79,141.34 L402.07,141.09 L402.77,140.84 L403.73,140.91 L404.50,141.15 L405.39,142.03 L407.24,142.23 L408.27,141.78 L409.60,140.89 L412.03,139.83 L413.42,139.71 L414.75,139.25 L415.40,138.73 L415.64,137.15 L415.05,134.99 L414.70,134.22 L414.63,133.66 L414.63,132.69 L414.11,131.91 L413.35,131.63 L410.77,131.90 L409.13,130.95 L404.44,129.72 L403.48,130.23 L402.65,130.45 L401.80,130.45 L401.14,130.42 L400.49,130.22 L400.01,129.92 L400.01,129.23 L400.23,128.35 L399.91,127.76 L398.58,126.91 L397.93,126.67 L396.96,126.47 L396.72,126.00 L396.59,125.47 L396.65,124.60 L396.94,123.06 L396.55,121.81 L396.15,121.57 L390.05,120.35 L390.00,118.58 L389.32,117.22 L389.67,116.02 L390.28,114.79 L390.55,113.73 L395.23,106.75 L398.07,106.24 L402.54,106.25 L406.75,105.10 L408.43,104.39 L411.37,102.44 L416.39,96.57 L424.32,92.65 L429.13,90.98 L431.61,91.05 L432.49,91.47 L434.73,90.81 L438.71,88.79 L443.22,85.95 L444.47,85.06 L448.73,81.98 L450.15,77.80 L454.75,73.05 L462.25,67.61 L484.59,52.17 L490.91,48.23 L501.72,42.25 L505.17,40.09 L504.56,39.01 L507.22,37.70 L514.47,34.70 L517.43,34.10 L522.81,32.66 L530.97,29.18 L535.07,27.36 L537.46,26.10 L538.06,25.30 L538.10,24.70 L538.81,24.08 L541.02,23.45 L556.89,20.00 L559.60,20.14 L567.94,21.06 L570.44,21.33 L615.11,22.53 L630.83,22.59 L643.82,22.13 L660.44,21.55 L687.64,21.26 L718.26,20.53 L717.49,22.29 L716.48,30.64 L715.37,39.83 L718.60,45.16 L715.84,53.19 L713.13,62.21 L714.85,66.77 L716.21,68.09 L716.77,68.63 L718.74,69.81 L718.74,69.81 L722.22,74.75 L722.96,77.26 L723.64,81.27 L723.38,82.39 L721.31,86.62 L720.42,99.76 L720.26,102.01 L717.42,103.89 L713.09,107.61 L711.67,111.62 Z" fill="none" stroke="black" stroke-width="1"/>
<circle cx="623.41" cy="390.93" r="3.50" fill="lightgray" stroke="black" stroke-width="0.6"/>
<circle cx="113.86" cy="234.29" r="3.50" fill="rgb(180,180,180)" stroke="black" stroke-width="0.6"/>
<circle cx="643.73" cy="427.15" r="4.00" fill="#00E400" stroke="black" stroke-width="0.6"/>
<circle cx="652.45" cy="465.63" r="4.00" fill="#00E400" stroke="black" stroke-width="0.6"/>
<circle cx="645.75" cy="393.45" r="3.50" fill="rgb(180,180,180)" stroke="black" stroke-width="0.6"/>
<circle cx="633.05" cy="489.30" r="3.50" fill="lightgray" stroke="black" stroke-width="0.6"/>
<circle cx="539.50" cy="161.27" r="3.50" fill="lightgray" stroke="black" stroke-width="0.6"/>
<circle cx="711.40" cy="474.57" r="3.50" fill="lightgray" stroke="black" stroke-width="0.6"/>
<circle cx="159.56" cy="210.84" r="3.50" fill="lightgray" stroke="black" stroke-width="0.6"/>
<circle cx="590.78" cy="185.70" r="3.50" fill="lightgray" stroke="black" stroke-width="0.6"/>
<circle cx="622.87" cy="131.07" r="3.50" fill="lightgray" stroke="black" stroke-width="0.6"/>
<circle cx="358.12" cy="297.74" r="3.50" fill="lightgray" stroke="black" stroke-width="0.6"/>
<circle cx="513.55" cy="223.53" r="4.00" fill="#00E400" stroke="black" stroke-width="0.6"/>
<circle cx="432.03" cy="118.56" r="3.50" fill="lightgray" stroke="black" stroke-width="0.6"/>
<circle cx="260.84" cy="218.57" r="4.00" fill="#00E400" stroke="black" stroke-width="0.6"/>
<circle cx="654.21" cy="462.50" r="4.00" fill="#00E400" stroke="black" stroke-width="0.6"/>
<circle cx="657.44" cy="466.02" r="4.00" fill="#00E400" stroke="black" stroke-width="0.6"/>
<circle cx="658.41" cy="475.49" r="4.00" fill="#00E400" stroke="black" stroke-width="0.6"/>
<circle cx="673.39" cy="268.40" r="3.50" fill="lightgray" stroke="black" stroke-width="0.6"/>
<circle cx="301.67" cy="209.63" r="3.50" fill="lightgray" stroke="black" stroke-width="0.6"/>
<circle cx="665.90" cy="474.36" r="4.00" fill="#00E400" stroke="black" stroke-width="0.6"/>
<circle cx="662.15" cy="86.14" r="4.00" fill="#00E400" stroke="black" stroke-width="0.6"/>
<circle cx="672.45" cy="440.94" r="4.00" fill="#00E400" stroke="black" stroke-width="0.6"/>
<circle cx="684.96" cy="232.79" r="3.50" fill="lightgray" stroke="black" stroke-width="0.6"/>
<circle cx="678.31" cy="398.05" r="3.50" fill="lightgray" stroke="black" stroke-width="0.6"/>
<circle cx="648.49" cy="475.16" r="3.50" fill="rgb(180,180,180)" stroke="black" stroke-width="0.6"/>
<circle cx="422.75" cy="228.48" r="4.00" fill="#00E400" stroke="black" stroke-width="0.6"/>
<circle cx="297.59" cy="329.96" r="4.00" fill="#00E400" stroke="black" stroke-width="0.6"/>
<circle cx="749.33" cy="464.77" r="4.00" fill="#00E400" stroke="black" stroke-width="0.6"/>
<circle cx="644.77" cy="484.52" r="4.00" fill="#00E400" stroke="black" stroke-width="0.6"/>
<circle cx="127.23" cy="234.88" r="3.50" fill="lightgray" stroke="black" stroke-width="0.6"/>
<circle cx="673.48" cy="272.05" r="5.00" fill="#FFFF00" stroke="black" stroke-width="0.6"/>
<circle cx="123.64" cy="247.03" r="3.50" fill="rgb(180,180,180)" stroke="black" stroke-width="0.6"/>
<circle cx="159.62" cy="210.31" r="3.50" fill="lightgray" stroke="black" stroke-width="0.6"/>
<circle cx="691.74" cy="473.60" r="3.50" fill="rgb(180,180,180)" stroke="black" stroke-width="0.6"/>
<circle cx="647.35" cy="476.84" r="3.50" fill="rgb(180,180,180)" stroke="black" stroke-width="0.6"/>
<circle cx="654.57" cy="478.94" r="4.00" fill="#00E400" stroke="black" stroke-width="0.6"/>
<circle cx="659.13" cy="466.16" r="5.00" fill="#FFFF00" stroke="black" stroke-width="0.6"/>
<circle cx="660.05" cy="460.50" r="3.50" fill="lightgray" stroke="black" stroke-width="0.6"/>
<circle cx="680.01" cy="363.05" r="3.50" fill="lightgray" stroke="black" stroke-width="0.6"/>
<circle cx="786.58" cy="450.55" r="3.50" fill="lightgray" stroke="black" stroke-width="0.6"/>
<circle cx="571.17" cy="23.74" r="3.50" fill="rgb(180,180,180)" stroke="black" stroke-width="0.6"/>
<circle cx="740.45" cy="450.63" r="3.50" fill="lightgray" stroke="black" stroke-width="0.6"/>
<circle cx="128.35" cy="242.46" r="3.50" fill="rgb(180,180,180)" stroke="black" stroke-width="0.6"/>
<circle cx="378.86" cy="203.89" r="3.50" fill="lightgray" stroke="black" stroke-width="0.6"/>
<circle cx="666.63" cy="474.18" r="3.50" fill="rgb(180,180,180)" stroke="black" stroke-width="0.6"/>
<circle cx="259.81" cy="218.68" r="4.00" fill="#00E400" stroke="black" stroke-width="0.6"/>
<circle cx="655.35" cy="463.83" r="3.50" fill="rgb(180,180,180)" stroke="black" stroke-width="0.6"/>
<circle cx="631.88" cy="485.46" r="4.00" fill="#00E400" stroke="black" stroke-width="0.6"/>
<circle cx="673.32" cy="452.85" r="3.50" fill="rgb(180,180,180)" stroke="black" stroke-width="0.6"/>
<circle cx="651.55" cy="480.96" r="3.50" fill="rgb(180,180,180)" stroke="black" stroke-width="0.6"/>
<circle cx="523.36" cy="320.76" r="3.50" fill="rgb(180,180,180)" stroke="black" stroke-width="0.6"/>
<circle cx="672.22" cy="471.51" r="3.50" fill="rgb(180,180,180)" stroke="black" stroke-width="0.6"/>
<circle cx="666.37" cy="474.31" r="3.50" fill="rgb(180,180,180)" stroke="black" stroke-width="0.6"/>
<circle cx="672.22" cy="471.51" r="3.50" fill="rgb(180,180,180)" stroke="black" stroke-width="0.6"/>
<circle cx="685.35" cy="33.58" r="4.00" fill="#00E400" stroke="black" stroke-width="0.6"/>
<circle cx="254.31" cy="218.69" r="5.00" fill="#FFFF00" stroke="black" stroke-width="0.6"/>
<circle cx="666.34" cy="474.37" r="3.50" fill="rgb(180,180,180)" stroke="black" stroke-width="0.6"/>
<circle cx="666.37" cy="474.31" r="3.50" fill="rgb(180,180,180)" stroke="black" stroke-width="0.6"/>
<circle cx="646.96" cy="474.10" r="4.00" fill="#00E400" stroke="black" stroke-width="0.6"/>
<circle cx="652.66" cy="384.32" r="3.50" fill="rgb(180,180,180)" stroke="black" stroke-width="0.6"/>
<circle cx="657.10" cy="446.03" r="4.00" fill="#00E400" stroke="black" stroke-width="0.6"/>
<circle cx="652.89" cy="477.50" r="5.00" fill="#FFFF00" stroke="black" stroke-width="0.6"/>
<circle cx="121.10" cy="224.87" r="4.00" fill="#00E400" stroke="black" stroke-width="0.6"/>
<circle cx="648.56" cy="490.16" r="4.00" fill="#00E400" stroke="black" stroke-width="0.6"/>
<circle cx="656.29" cy="476.41" r="3.50" fill="rgb(180,180,180)" stroke="black" stroke-width="0.6"/>
<circle cx="656.29" cy="476.43" r="3.50" fill="rgb(180,180,180)" stroke="black" stroke-width="0.6"/>
<circle cx="656.31" cy="476.41" r="3.50" fill="rgb(180,180,180)" stroke="black" stroke-width="0.6"/>
<circle cx="656.37" cy="476.36" r="3.50" fill="rgb(180,180,180)" stroke="black" stroke-width="0.6"/>
<circle cx="656.16" cy="476.60" r="3.50" fill="rgb(180,180,180)" stroke="black" stroke-width="0.6"/>
<circle cx="656.27" cy="476.40" r="3.50" fill="rgb(180,180,180)" stroke="black" stroke-width="0.6"/>
<circle cx="656.09" cy="476.47" r="3.50" fill="rgb(180,180,180)" stroke="black" stroke-width="0.6"/>
<circle cx="668.37" cy="476.39" r="4.00" fill="#00E400" stroke="black" stroke-width="0.6"/>
<circle cx="440.76" cy="326.68" r="5.00" fill="#FFFF00" stroke="black" stroke-width="0.6"/>
<circle cx="648.83" cy="470.23" r="4.00" fill="#00E400" stroke="black" stroke-width="0.6"/>
<circle cx="672.22" cy="471.51" r="4.00" fill="#00E400" stroke="black" stroke-width="0.6"/>
<circle cx="724.25" cy="215.50" r="3.50" fill="rgb(180,180,180)" stroke="black" stroke-width="0.6"/>
<circle cx="668.69" cy="313.51" r="3.50" fill="rgb(180,180,180)" stroke="black" stroke-width="0.6"/>
<circle cx="648.60" cy="476.10" r="3.50" fill="rgb(180,180,180)" stroke="black" stroke-width="0.6"/>
<circle cx="661.73" cy="273.43" r="4.00" fill="#00E400" stroke="black" stroke-width="0.6"/>
<circle cx="649.63" cy="483.92" r="4.00" fill="#00E400" stroke="black" stroke-width="0.6"/>
<circle cx="658.93" cy="374.64" r="4.00" fill="#00E400" stroke="black" stroke-width="0.6"/>
<circle cx="696.56" cy="416.90" r="3.50" fill="rgb(180,180,180)" stroke="black" stroke-width="0.6"/>
<circle cx="787.40" cy="466.95" r="3.50" fill="rgb(180,180,180)" stroke="black" stroke-width="0.6"/>
<circle cx="664.18" cy="269.63" r="3.50" fill="rgb(180,180,180)" stroke="black" stroke-width="0.6"/>
<circle cx="621.00" cy="351.09" r="3.50" fill="rgb(180,180,180)" stroke="black" stroke-width="0.6"/>
<circle cx="254.50" cy="219.43" r="4.00" fill="#00E400" stroke="black" stroke-width="0.6"/>
<circle cx="651.28" cy="481.27" r="3.50" fill="rgb(180,180,180)" stroke="black" stroke-width="0.6"/>
<circle cx="787.40" cy="466.95" r="4.00" fill="#00E400" stroke="black" stroke-width="0.6"/>
<circle cx="663.71" cy="452.15" r="3.50" fill="rgb(180,180,180)" stroke="black" stroke-width="0.6"/>
<circle cx="646.26" cy="477.62" r="4.00" fill="#00E400" stroke="black" stroke-width="0.6"/>
<circle cx="649.82" cy="485.14" r="4.00" fill="#00E400" stroke="black" stroke-width="0.6"/>
<circle cx="648.41" cy="470.06" r="3.50" fill="rgb(180,180,180)" stroke="black" stroke-width="0.6"/>
<rect x="20" y="374" width="330" height="118" fill="white" stroke="black" stroke-width="0.6"/>
<text x="30" y="392" font-family="Arial, sans-serif" font-size="12">PM2.5 AQI categories</text>
<rect x="30" y="394" width="12" height="12" fill="#00E400" stroke="black" stroke-width="0.4"/>
<text x="48" y="404" font-family="Arial, sans-serif" font-size="11">Good (0–50)  (µg/m³: 0.0–12.0)</text>
<rect x="30" y="408" width="12" height="12" fill="#FFFF00" stroke="black" stroke-width="0.4"/>
<text x="48" y="418" font-family="Arial, sans-serif" font-size="11">Moderate (51–100)  (µg/m³: 12.1–35.4)</text>
<rect x="30" y="422" width="12" height="12" fill="#FF7E00" stroke="black" stroke-width="0.4"/>
<text x="48" y="432" font-family="Arial, sans-serif" font-size="11">USG (101–150)  (µg/m³: 35.5–55.4)</text>
<rect x="30" y="436" width="12" height="12" fill="#FF0000" stroke="black" stroke-width="0.4"/>
<text x="48" y="446" font-family="Arial, sans-serif" font-size="11">Unhealthy (151–200)  (µg/m³: 55.5–150.4)</text>
<rect x="30" y="450" width="12" height="12" fill="#8F3F97" stroke="black" stroke-width="0.4"/>
<text x="48" y="460" font-family="Arial, sans-serif" font-size="11">Very Unhealthy (201–300)  (µg/m³: 150.5–250.4)</text>
<rect x="30" y="464" width="12" height="12" fill="#7E0023" stroke="black" stroke-width="0.4"/>
<text x="48" y="474" font-family="Arial, sans-serif" font-size="11">Hazardous (301–500)  (µg/m³: 250.5+)</text>
<text x="20" y="502" font-family="Arial, sans-serif" font-size="12" fill="gray">Stale points shown in gray</text>
</svg>
