<svg xmlns="http://www.w3.org/2000/svg" width="980" height="420">
<rect x="0" y="0" width="980" height="420" fill="white"/>
<text x="230" y="26" font-family="Arial, sans-serif" font-size="18">Pollutant coverage — 16 February, 2026</text>
<text x="230" y="48" font-family="Arial, sans-serif" font-size="12" fill="gray">Counts returned by OpenAQ / latest across the NY daily sample (top 6). Total shown: 173.</text>
<line x1="230" y1="70" x2="230" y2="370" stroke="black"/>
<line x1="230" y1="370" x2="940" y2="370" stroke="black"/>
<line x1="230.00" y1="70" x2="230.00" y2="370" stroke="lightgray"/>
<text x="230.00" y="388" font-family="Arial, sans-serif" font-size="11" text-anchor="middle">0</text>
<line x1="407.50" y1="70" x2="407.50" y2="370" stroke="lightgray"/>
<text x="407.50" y="388" font-family="Arial, sans-serif" font-size="11" text-anchor="middle">18</text>
<line x1="585.00" y1="70" x2="585.00" y2="370" stroke="lightgray"/>
<text x="585.00" y="388" font-family="Arial, sans-serif" font-size="11" text-anchor="middle">36</text>
<line x1="762.50" y1="70" x2="762.50" y2="370" stroke="lightgray"/>
<text x="762.50" y="388" font-family="Arial, sans-serif" font-size="11" text-anchor="middle">54</text>
<line x1="940.00" y1="70" x2="940.00" y2="370" stroke="lightgray"/>
<text x="940.00" y="388" font-family="Arial, sans-serif" font-size="11" text-anchor="middle">72</text>
<text x="585.00" y="408" font-family="Arial, sans-serif" font-size="12" text-anchor="middle">measurement count</text>
<text x="220" y="87" font-family="Arial, sans-serif" font-size="12" text-anchor="end">pm25</text>
<rect x="230" y="70" width="710.00" height="22" fill="#0B1F3B" stroke="black" stroke-width="0.5"/>
<text x="934.00" y="87" font-family="Arial, sans-serif" font-size="12" fill="white" text-anchor="end">74 (43%)</text>
<text x="220" y="119" font-family="Arial, sans-serif" font-size="12" text-anchor="end">pm1</text>
<rect x="230" y="102" width="402.97" height="22" fill="#0B1F3B" stroke="black" stroke-width="0.5"/>
<text x="640.97" y="119" font-family="Arial, sans-serif" font-size="12">42 (24%)</text>
<text x="220" y="151" font-family="Arial, sans-serif" font-size="12" text-anchor="end">o3</text>
<rect x="230" y="134" width="297.43" height="22" fill="#0B1F3B" stroke="black" stroke-width="0.5"/>
<text x="535.43" y="151" font-family="Arial, sans-serif" font-size="12">31 (18%)</text>
<text x="220" y="183" font-family="Arial, sans-serif" font-size="12" text-anchor="end">pm10</text>
<rect x="230" y="166" width="211.08" height="22" fill="#0B1F3B" stroke="black" stroke-width="0.5"/>
<text x="449.08" y="183" font-family="Arial, sans-serif" font-size="12">22 (13%)</text>
<text x="220" y="215" font-family="Arial, sans-serif" font-size="12" text-anchor="end">no2</text>
<rect x="230" y="198" width="19.19" height="22" fill="#0B1F3B" stroke="black" stroke-width="0.5"/>
<text x="257.19" y="215" font-family="Arial, sans-serif" font-size="12">2 (1%)</text>
<text x="220" y="247" font-family="Arial, sans-serif" font-size="12" text-anchor="end">so2</text>
<rect x="230" y="230" width="19.19" height="22" fill="#0B1F3B" stroke="black" stroke-width="0.5"/>
<text x="257.19" y="247" font-family="Arial, sans-serif" font-size="12">2 (1%)</text>
<rect x="600.00" y="242.00" width="330" height="118" fill="white" stroke="black" stroke-width="0.6"/>
<text x="610.00" y="263.00" font-family="Arial, sans-serif" font-size="11" fill="black">
<tspan x="610.00" dy="0">Dictionary</tspan>
<tspan x="610.00" dy="14">PM2.5: fine particles ≤2.5 µm</tspan>
<tspan x="610.00" dy="14">PM10: particles ≤10 µm</tspan>
<tspan x="610.00" dy="14">O3: ozone</tspan>
<tspan x="610.00" dy="14">NO2: nitrogen dioxide</tspan>
<tspan x="610.00" dy="14">SO2: sulfur dioxide</tspan>
<tspan x="610.00" dy="14">PM1: particles ≤1 µm</tspan>
</text>
</svg>
